<svg
  xmlns="http://www.w3.org/2000/svg"
  viewBox="0 0 24 24"
  width="24"
  height="24"
  fill="currentColor"
>
  <path d="M7 4h-2l-1.345 8.69a1 1 0 0 0 .958 1.31h10.774a1 1 0 0 0 .958-1.31l-1.345-8.69h-2l-1 6h-6l-1-6zm13 2h-1.62l-1.06 6.79a1 1 0 0 1-.962.79h-12.716a1 1 0 0 1-.962-.79l-1.06-6.79h-1.62a1 1 0 0 1 0-2h1.58a1 1 0 0 1 .98.8l1.54 9.3a3 3 0 0 0 2.942 2.4h11.116a3 3 0 0 0 2.942-2.4l1.54-9.3a1 1 0 0 1 .98-.8h1.58a1 1 0 0 1 0 2zm-5 12a1 1 0 1 0 1 1 1 1 0 0 0-1-1zm-10 0a1 1 0 1 0 1 1 1 1 0 0 0-1-1z"/>
</svg>
